<svg width="114" height="106" viewBox="0 0 114 106" fill="none" xmlns="http://www.w3.org/2000/svg">
<g clip-path="url(#clip0_102_2)">
<path fill-rule="evenodd" clip-rule="evenodd" d="M84.2029 17.9923L108.456 40.5175C115.848 47.3833 115.848 58.6167 108.456 65.4825L70.3719 100.85C65.8261 105.072 59.5002 106.699 53.5822 105.727C62.6398 102.706 70.6305 95.7203 76.5147 87.4772C83.7337 77.3701 87.8021 65.346 86.8078 56.4268C86.0144 49.3132 83.0611 47.436 76.4534 43.2361L76.0295 42.9661L56.6694 29.5463C54.4521 28.1357 51.772 26.6348 49.025 25.8798C47.3424 25.419 45.6367 25.236 43.9926 25.5152C51.5583 20.4008 69.2415 15.9512 84.2029 17.9923Z" fill="#1DE9B6"/>
<path fill-rule="evenodd" clip-rule="evenodd" d="M4.64597 41.2688L43.4892 5.14912C50.8835 -1.71637 62.9775 -1.71637 70.3715 5.14912L84.2 17.9935C81.2175 17.4891 78.1548 17.1918 75.0875 17.0878C62.0377 16.6438 48.8686 19.6921 41.1968 25.1357C40.48 25.6435 39.8448 26.1366 39.2823 26.6253C39.2035 26.6738 39.1237 26.7229 39.045 26.7749L39.0731 26.8098C35.0247 30.4198 34.8382 33.7703 34.4832 40.2177C34.4832 40.2177 34.014 68.6105 34.7214 71.176C35.2064 72.9307 36.014 74.5369 37.3143 75.7662C36.9413 75.6423 36.5555 75.5084 36.1562 75.3554C24.874 70.5417 8.38894 55.0763 4.64597 41.2688Z" fill="#29E4B5"/>
<path d="M84.251 57.296C84.1919 56.7613 83.9478 55.3466 83.9008 55.1366C83.5784 56.8577 82.6097 58.3755 81.2995 59.7042C79.2254 61.804 78.0366 62.6205 75.4798 63.8537L52.3392 75.0301C45.2363 78.4615 42.0617 79.9972 34.9323 77.2962C25.9935 73.9062 8.82755 57.6272 4.78237 41.2419C-1.83826 48.1525 -1.58519 58.8333 5.54418 65.4557L43.3286 100.548L43.625 100.823C44.755 101.873 45.9965 102.755 47.3104 103.482C48.7646 104.287 51.834 105.4 53.7175 105.7C63.1731 103.059 69.7441 95.506 75.8478 86.9564C82.9525 77.0113 85.2243 66.0201 84.251 57.296Z" fill="#1DE9B6"/>
<g opacity="0.6">
<path fill-rule="evenodd" clip-rule="evenodd" d="M57.1888 28.9009L70.3565 38.0288C70.6301 38.0252 70.902 38.0089 71.1766 38.0089C87.2813 38.0089 102.087 44.046 113.107 53.7645C113.328 49.1989 111.586 44.5664 107.842 41.0879L83.7932 18.752C81.4512 18.4464 78.9621 18.2913 76.3882 18.2913C64.8069 18.2913 53.5864 21.3019 47.0638 24.6667C47.7781 24.7525 48.5163 24.8997 49.2719 25.1063C52.3581 25.956 55.2519 27.6679 57.1888 28.9009Z" fill="#1DE9B6"/>
</g>
<g opacity="0.6">
<path fill-rule="evenodd" clip-rule="evenodd" d="M33.4925 50.341C33.5332 45.4028 33.5987 41.2575 33.6167 40.176C33.9601 33.9415 34.1555 30.3839 37.9271 26.7341L37.8159 26.5967L38.5431 26.1178C38.6097 26.0737 38.6766 26.0315 38.7433 25.9908C39.3129 25.4997 39.9442 25.01 40.6709 24.4953C47.8483 19.4025 60.0727 16.2394 72.5745 16.2394C73.4228 16.2394 74.2714 16.2536 75.1196 16.2821C77.3479 16.3576 79.5499 16.5337 81.6967 16.8065L69.7587 5.71863C66.3469 2.55058 61.7909 0.805878 56.9316 0.805878C52.0716 0.805878 47.5163 2.55058 44.1038 5.71863L5.61212 41.5119C7.75279 48.8819 13.6423 56.913 20.4431 63.3966C24.0423 58.4484 28.46 54.0448 33.4925 50.341Z" fill="#1DE9B6"/>
</g>
<g opacity="0.6">
<path d="M18.6146 66.0768C12.4827 59.6194 6.84257 51.3802 4.36431 42.9996C-0.885375 49.6256 -0.223409 58.9575 6.15736 64.8856L14.8304 72.9403C15.9235 70.5672 17.1962 68.2783 18.6146 66.0768Z" fill="url(#paint0_linear_102_2)"/>
</g>
</g>
<defs>
<linearGradient id="paint0_linear_102_2" x1="77.8264" y1="80.4785" x2="18.1498" y2="57.6531" gradientUnits="userSpaceOnUse">
<stop stop-color="#44E4BC"/>
<stop offset="0.0311" stop-color="#216C5A"/>
<stop offset="0.2535" stop-color="#317E6B"/>
<stop offset="0.4843" stop-color="#1F9678"/>
<stop offset="0.7268" stop-color="#3FC0A0"/>
<stop offset="1" stop-color="#47E8C0"/>
</linearGradient>
<clipPath id="clip0_102_2">
<rect width="114" height="106" fill="white"/>
</clipPath>
</defs>
</svg>
