<svg width="18" height="16" viewBox="0 0 18 16" fill="none" xmlns="http://www.w3.org/2000/svg">
<path fill-rule="evenodd" clip-rule="evenodd" d="M2.25 2.76562C2.10082 2.76562 1.95774 2.82817 1.85225 2.93952C1.74676 3.05087 1.6875 3.20189 1.6875 3.35937V12.8594C1.6875 13.0168 1.74676 13.1679 1.85225 13.2792C1.95774 13.3906 2.10082 13.4531 2.25 13.4531H11.25C11.3992 13.4531 11.5423 13.3906 11.6477 13.2792C11.7532 13.1679 11.8125 13.0168 11.8125 12.8594V3.35937C11.8125 3.20189 11.7532 3.05087 11.6477 2.93952C11.5423 2.82817 11.3992 2.76562 11.25 2.76562H2.25ZM0 3.35937C0 2.72948 0.237053 2.1254 0.65901 1.68C1.08097 1.2346 1.65326 0.984375 2.25 0.984375H11.25C11.8467 0.984375 12.419 1.2346 12.841 1.68C13.2629 2.1254 13.5 2.72948 13.5 3.35937V4.29274L15.9649 2.99244C16.1793 2.87929 16.4175 2.82587 16.657 2.83724C16.8964 2.84861 17.1291 2.92439 17.333 3.05741C17.5369 3.19043 17.7053 3.37625 17.822 3.59724C17.9387 3.81822 18 4.06704 18 4.32005V11.8987C18 12.1517 17.9387 12.4005 17.822 12.6215C17.7053 12.8425 17.5369 13.0283 17.333 13.1613C17.1291 13.2943 16.8964 13.3701 16.657 13.3815C16.4175 13.3929 16.1793 13.3395 15.9649 13.2263L13.5 11.926V12.8594C13.5 13.4893 13.2629 14.0934 12.841 14.5388C12.419 14.9842 11.8467 15.2344 11.25 15.2344H2.25C1.65326 15.2344 1.08097 14.9842 0.65901 14.5388C0.237053 14.0934 0 13.4893 0 12.8594V3.35937ZM13.5 9.9334L16.3125 11.4178V4.80218L13.5 6.28538V9.9334Z" fill="black"/>
</svg>
